<?xml version="1.0" encoding="utf-8"?>
<!-- Generator: Adobe Illustrator 15.0.0, SVG Export Plug-In . SVG Version: 6.00 Build 0)  -->
<!DOCTYPE svg PUBLIC "-//W3C//DTD SVG 1.1//EN" "http://www.w3.org/Graphics/SVG/1.1/DTD/svg11.dtd">
<svg version="1.1" id="svg2" xmlns="http://www.w3.org/2000/svg" xmlns:xlink="http://www.w3.org/1999/xlink" x="0px" y="0px"
	 width="200px" height="119px" viewBox="0 0 200 119" enable-background="new 0 0 200 119" xml:space="preserve">
<path id="path6" fill="#A20109" d="M85.82,1.5c8-1.86,16.2-0.66,24.27-0.03c7.33-0.06,13.57,4.35,20.24,6.75
	c4.85,1.44,8.391,5.24,11.23,9.23C147.6,23.75,153,30.99,155.71,39.38c0.979,3.45,2.47,6.77,3.08,10.32
	c0.521,2.25,0.97,4.51,1.5,6.77c6.28,1.33,12.931-0.32,18.989,2.15c4.021,1.35,8.171,3.06,10.951,6.399
	c2.879,3.16,6.42,6.381,6.81,10.91c0.51,3.62,2.16,6.91,2.96,10.461v0.939c-1.48,7.1-1.721,15.189-6.85,20.85
	c-3.51,3.28-7.24,6.5-11.621,8.541c-2.76,0.779-5.67,0.479-8.489,0.77c-3.351,0.21-6.67,1.32-10.05,0.8
	c-8.95-0.95-17.961-0.39-26.94-0.569c-6.72-0.541-13.44,0.219-20.17,0.029c-0.569,0.32-1.7,0.939-2.271,1.25h-0.149
	c-3.95-1.68-8.31-1.24-12.489-1.37c-8.011,0.54-16.041-0.13-24.061,0.12c-5.75,0.02-11.5,0.23-17.24-0.18
	c-3.88,1.109-7.95,0.47-11.9,1.16c-0.52-0.23-1.56-0.681-2.08-0.9c-7.74,0.71-15.63,1.15-23.28-0.54
	c-0.36,0.181-1.08,0.54-1.45,0.72C15.83,114.6,9.8,112.04,6.3,106.7C1.95,101.46,1.08,94.45,0,87.971v-0.74
	c1.76-0.91,1.79-3.371,0-4.271v-0.47c1.64-12.36,11.48-23.14,23.82-25.4c5.41-0.8,10.9-1.06,16.37-0.88
	c-0.6-11.52,4.96-22.35,11.6-31.4c0.28-0.45,0.84-1.35,1.12-1.8c2.59-2.71,4.93-5.66,7.74-8.14c3.42-2.95,7.65-4.72,11.18-7.52
	c0.51-0.07,1.54-0.21,2.05-0.28c0.4-0.36,1.19-1.06,1.59-1.42C78.89,4.2,82.2,2.44,85.82,1.5z"/>
<path id="path8" fill="#F7E4A8" d="M87.74,7.03c0.7-0.41,2.1-1.24,2.8-1.65c2.06,7.18,3.14,14.54,3.84,21.96
	c3.44-0.78,6.97-0.97,10.49-1.07c0.851-3.72,2.34-7.39,1.771-11.29c1.31-3.09,2.18-6.34,3.06-9.58c2.25,0.17,3.35,1.41,2.45,3.6
	c-1.43,6.11-3.74,12-4.961,18.17c3.371,0.61,6.65,1.63,9.83,2.89c1.891-5.99,7.211-10.21,8.75-16.28c1.32-0.55,2.78-1.6,3.84,0.03
	c-0.649,2.84-3.359,4.58-4.379,7.28c-1.51,3.66-4.42,6.46-6.33,9.9c2.399,2.47,4.75,5.021,7.479,7.14
	c5.04-3.97,9.851-8.2,14.82-12.25c0.819,0.68,1.649,1.35,2.47,2.02c-1.57,1.17-3.109,2.4-4.47,3.81c-0.47,0.15-1.421,0.43-1.89,0.57
	c-0.82,1.05-1.641,2.09-2.471,3.13c-2.85,0.16-4.82,2.29-6.89,3.97c1.079,3.46,2.59,6.78,4.64,9.79c6.33-1.87,12.42-4.4,18.59-6.71
	c0.61,0.87,1.23,1.74,1.84,2.62c-6.439,2.69-12.959,5.49-20,6.1c0.391,2.03,0.84,4.05,1.391,6.04c-3.45,0.08-6.9,0.27-10.34,0.14
	c-0.41,0.08-1.221,0.25-1.631,0.34c-5.18-1.66-10.399,0.26-15.58,0.8c5.511-4.66,11.381-8.98,16.131-14.45
	c1.23-1.23,1.76-2.91,2.279-4.52c-5.039,1.07-10.119,2.07-15.069,3.49c-5.06,2.68-10.67,4.29-15.16,7.98
	c-4.72,1.68-8.5,4.98-12.83,7.38c-2.79-1.21-5.83-0.86-8.77-0.74c6.71-2,13.05-4.96,19.52-7.6c4.63-2.58,9-5.64,13.149-8.92
	c1.5-0.82,1.471-2.57,1.801-4.02c-3.83,0.23-7.58,1.13-11.38,1.62c-3.32,0.18-6.79-0.17-9.84,1.46c-3.05-0.21-6.1,0.3-8.78,1.81
	c-2.91,1.64-6.23,2.12-9.39,3.05c1.7-1.67,2.91-3.74,3.83-5.92c-5.43-4.11-10.98-8.17-17.05-11.31c0.56-1.09,1.13-2.18,1.69-3.27
	c6.11,3.71,11.72,8.08,16.86,13.03c2.62-2.18,5.21-4.41,7.83-6.59c-1.5-2.69-4.08-4.73-4.86-7.8c-2.19-2.46-4.25-5.13-5.41-8.25
	c-0.42-1.27,2.06-2.17,2.59-1.25c3.41,5.35,6.41,10.95,9.68,16.39c2.91-0.83,5.74-1.93,8.54-3.08
	C91.03,20.27,89.38,13.65,87.74,7.03z"/>
<path id="path10" fill="#F7E4A8" d="M93.79,40.53c4.22,0.8,8.069-1.61,12.25-1.67c-2.729,2.32-5.82,4.16-8.6,6.41
	c-0.24-0.27-0.72-0.81-0.95-1.08c-1.24,1.35-2.49,2.67-3.75,3.98c-0.13-0.63-0.38-1.89-0.5-2.52c-0.32,0.72-0.94,2.16-1.25,2.88
	c-0.6-0.03-1.79-0.1-2.39-0.13c-0.9,0.94-1.81,1.87-2.72,2.79l-0.36-1.78c-1.14,1.08-2.32,2.13-3.52,3.14
	c-0.31-0.31-0.92-0.94-1.22-1.26c-1.47,0.82-3.01,1.58-4.74,1.25c-1.16,1.15-2.33,2.3-3.5,3.44c-0.02-0.79-0.05-2.38-0.06-3.18
	c-0.92,1.77-2.18,3.31-3.63,4.66c-0.29-0.5-0.87-1.52-1.16-2.02c-1.29,1.6-2.75,3.04-4.37,4.32c2.2-1.66,1.21-3.47,0.45-5.11
	l1.75-0.6c-1.93,0.11-3.86,0.21-5.8,0.31c1.55-2.16,4.54-1.18,6.26-3.08c-3.71-0.43-7.25,0.88-10.87,1.4
	c3.03-1.36,6.26-2.18,9.57-2.48c2.85-3.41,7.26-5.3,11.71-4.47c-0.07-0.51-0.22-1.51-0.29-2.01c4.24-0.88,8.8-2.74,12.98-0.56
	c2.75,0.21,5.68,0.67,8.16-0.89c-2.77,0.21-5.55,0.12-8.28-0.41c0.85-0.22,2.55-0.65,3.39-0.86C92.71,40.88,93.43,40.65,93.79,40.53
	z"/>
<path id="path12" fill="#F7E4A8" d="M47.03,41.49c3.55,0.39,6.6,2.33,9.98,3.3c2.7,0.78,5.33,1.81,7.86,3.03
	c-4.64,1.82-9.47,0.25-13.6-2.07c-1.29-0.12-2.59-0.23-3.88-0.34C47.27,44.1,47.15,42.79,47.03,41.49z"/>
<path id="path14" fill="#F7E4A8" d="M115.93,44.66c2.2-1.99,4.99-3.09,7.83-3.83c-1.64,2.39-3.9,4.23-6.25,5.88
	c-0.24,0.33-0.73,1.01-0.97,1.35c-1.47,0.54-2.89,1.19-4.31,1.83c0.119,0.64,0.359,1.9,0.479,2.53c-0.229-0.5-0.69-1.51-0.92-2.01
	c-1.181,0.8-2.39,1.55-3.64,2.23c-0.66,1.16-1.311,2.33-1.971,3.5c-0.08-0.69-0.25-2.07-0.33-2.76c-0.49,1.83-1.359,3.51-2.289,5.15
	c-0.221-0.77-0.67-2.3-0.891-3.07c-0.68,1.4-1.37,2.79-2.04,4.19c-0.38-0.11-1.13-0.35-1.51-0.47c-0.76,1.099-1.54,2.19-2.32,3.27
	c-0.24-0.521-0.73-1.56-0.98-2.08c-0.81,1.521-1.84,2.899-2.96,4.21c-0.12-0.62-0.37-1.84-0.49-2.45c-0.57,1.149-1.15,2.3-1.72,3.45
	c-0.55-0.439-1.09-0.88-1.63-1.32c-0.77,1.051-1.53,2.1-2.3,3.141c-0.32-0.24-0.97-0.73-1.29-0.971c-1.85,1.28-3.84,2.32-5.81,3.37
	c-2.57,0.75-5.08,1.8-7.76,2.11c0.86-3.301,4.7-4.92,6.91-7.391c3.28,0.44,6.79,0.61,9.69-1.25c-1.55,0.09-4.66,0.291-6.21,0.381
	c2.64-1.131,5.44-2.051,7.72-3.871c-4.23-0.3-8.1,1.51-11.39,4.01c2.64-3.54,7.04-5.23,11.38-5.02c3.13,0.15,6.09-0.88,8.92-2.11
	l-2.67-0.01l0.24-1.63c1.75-0.38,3.5-0.78,5.25-1.2c-1.59-0.26-3.17-0.59-4.73-0.99c0.12-0.23,0.36-0.7,0.48-0.93
	c3.28-0.42,6.579-0.53,9.85-0.94c-1.399-0.24-4.22-0.71-5.62-0.94c1.95-0.7,4.03-0.6,6.061-0.4c0.91-0.5,1.82-1,2.74-1.5
	c-2.26,0.38-4.551,0.3-6.75-0.35c3.27-0.37,6.64-0.55,9.64-2.07C113.12,43.13,114.3,43.43,115.93,44.66z"/>
<path id="path16" fill="#A20109" d="M78.26,43.51c4.1-0.47,8.26-0.521,12.28,0.63c-3.97,0.33-7.87,1.31-11.87,1.27l2.35,0.8
	c-1.01,0.16-2.75,1.59-3.34,0.14C76.68,45.45,77.93,44.38,78.26,43.51z"/>
<path id="path18" fill="#A20109" d="M85.68,46.09c0.47,1.73-4.41,1.45-3.17-0.16C83.31,45.97,84.89,46.05,85.68,46.09z"/>
<path id="path20" fill="#A20109" d="M65.75,50.27c2.58-2.91,6.96-5,10.65-2.8l-0.58,0.45c-2.44,0.68-5,0.71-7.51,0.89
	c0.79,0.48,2.38,1.44,3.17,1.92C69.57,50.67,67.65,50.55,65.75,50.27z"/>
<path id="path22" fill="#A20109" d="M77.12,48.26c0.33-0.01,0.99-0.03,1.32-0.04l0.12,0.71l-0.93,0.49l-0.84-0.44L77.12,48.26z"/>
<path id="path24" fill="#A20109" d="M73,50.14c0.33-1.28,1.13-1.54,2.41-0.79C75.09,50.64,74.29,50.9,73,50.14z"/>
<path id="path26" fill="#F7E4A8" d="M87.31,57.14c2.53-1.71,5.11-4.59,8.48-3.85C93.01,54.66,90.13,55.86,87.31,57.14z"/>
<path id="path28" fill="#F7E4A8" d="M45.17,60.25c2.92-1.95,5.87-3.91,9.03-5.45c3.11,0.63,6.27,0.95,9.41,0.25
	c-0.2,0.8-0.59,2.41-0.79,3.21C57.1,59.86,51.12,61.109,45.17,60.25z"/>
<path id="path30" fill="#F7E4A8" d="M95.37,56.38"/>
<path id="path32" fill="#F7E4A8" d="M28.67,61.91c5.81,0.84,12.2-1.7,17.5,1.79c-0.9-0.14-1.81-0.28-2.71-0.431
	c-8.51,0.44-17.7-0.479-25.4,3.83c-3.98,2.58-8.2,5.75-9.06,10.74c-3.35,2.91-1.6,7.71-1.51,11.54C6.84,92.2,7.13,95,8.92,97.35
	c0.43,2.09,1.52,3.92,3.48,4.881c2.85,5.08,8.61,8.68,14.53,8.129c6.7-0.399,13.38,0.311,20.08,0.41
	c4.32-0.039,8.64-0.34,12.96-0.119c4.71,0.199,9.46-0.53,14.14,0.33c3.16-0.181,6.32-0.92,9.5-0.44
	c8.05-1.431,16.31,0.89,24.39-0.729c7.29,1,14.65,0.279,21.971,0.81c15.289-0.229,30.59,0.08,45.869,0.08
	c4.24-1.83,9.23-2.81,12.2-6.681c5.46-6.609,5.181-15.89,3.62-23.85c-0.57-1.02-1.32-1.91-2.01-2.83
	c-0.961-3.41-4.03-5.33-6.221-7.869c-1.99-2.371-4.93-3.461-7.65-4.721c-10.26-1.609-20.709-1.34-31-0.15
	c-6.629,0.271-13.239-1.609-19.84-0.39c-8.1,0.521-16.209-0.601-24.319-0.19c1.101-0.609,2.06-1.66,3.351-1.85
	c8.359-0.48,16.739,0.561,25.079-0.311c6.99,0.531,13.94-0.909,20.931-0.34c3.629,0.32,7.27-0.5,10.899-0.039
	c6.75,0.709,14.011-0.811,20.261,2.549c2.949,1.021,4.689,3.761,6.5,6.111c2.439,2.489,5.779,4.979,5.58,8.85
	c-0.041,2.68,2.01,4.699,2.529,7.22c-0.99,7.649-2.561,15.63-7.58,21.75c-3.38,1.771-6.83,3.45-10.41,4.74
	c-7.15,1.6-14.4-1.011-21.609-0.229c-4.961,0.649-9.95,0.139-14.91-0.201c-13.4-0.229-26.84,1.561-40.221,0.431
	c-3.839,0.28-7.79,1.05-11.549-0.19c-5.6,0.02-11.18-1.5-16.74-0.38c-4.94-0.22-9.92,1.07-14.8,0.14
	c-9.94,0.801-19.95,0.371-29.92,0.9c-4.7,0.51-8.38-2.85-12.56-4.3c-1.45-1.41-2.94-2.761-4.48-4.06
	c-1.73-3.49-5.05-6.181-5.51-10.261c-0.51-5.17-1.2-10.56,0.5-15.59c1.8-6.569,7.22-11.67,13.36-14.26
	C22.53,64.09,25.65,63.12,28.67,61.91z"/>
<path id="path34" fill="#F7E4A8" d="M58.14,63.471c6.55-2.301,13.59-1.841,20.42-1.781c-1.71,1.121-3.61,2.101-5.71,1.541
	C67.95,62.18,63.07,63.77,58.14,63.471z"/>
<path id="path36" fill="#F7E4A8" d="M24.33,74.67c5.41,1.46,11.03-0.87,16.37,0.811c4.04,1.35,4.86,7.51,1.05,9.699
	c1.45,1.62,2.8,3.311,4.15,5.01c-0.57,2.391-1.74,4.551-3.08,6.59c-6.11,2.191-12.71,0.881-19.05,1.451
	c-0.28-0.461-0.84-1.391-1.12-1.851c0.75-0.19,2.23-0.569,2.97-0.76c2.36-5.28,1.43-11.149,1.1-16.71c0.22-1.98-2.06-2.41-3.31-3.35
	C23.64,75.33,24.1,74.891,24.33,74.67z"/>
<path id="path38" fill="#F7E4A8" d="M51.19,88.65c2.4-4.84,3.96-10.101,6.84-14.7c2.84,3.59,3.46,8.271,5.81,12.13
	c1.69,2.84,2.76,5.97,4.21,8.93c0.82,2.311,4.24,0.811,4.58-1.02c0.35-4.35,0.22-8.73,0.05-13.08c0.08-2.5-2.68-3.33-4.4-4.391
	c0.14-0.359,0.44-1.1,0.59-1.47c2.97,0.03,5.93,0.08,8.9,0.16c3.1,5.28,7.83,9.33,11.22,14.41c-0.22-3.94-0.08-7.92-0.67-11.83
	c-1.21-0.64-2.49-1.149-3.72-1.74c2.93-1.739,6.4-1.159,9.65-1.409c0.13,0.52,0.39,1.56,0.52,2.08
	c-1.07,0.559-2.16,1.069-3.16,1.739c-0.66,6.761,0.05,13.59-0.45,20.37c-1.49-0.74-3.09-1.41-4.1-2.79
	c-3.91-4.601-7.67-9.319-11.66-13.851c0.55,4.021,0.1,8.08,0.11,12.121c1.56,1.02,3.15,1.969,4.73,2.949
	c-2.59,1.12-5.44,1.11-8.21,1.1c-4.64-0.199-9.31,0.361-13.93-0.409c1.28-0.79,2.58-1.55,3.89-2.28c-0.46-1.4-0.93-2.79-1.43-4.17
	c-2.61-0.061-5.22-0.12-7.83-0.221C52,92.98,51.25,94.66,50.46,96.33c1.82,0.24,4.01-0.18,5.07,1.76c-3.49,0.25-7.01,0.33-10.5,0.02
	C47.93,95.561,49.9,92.26,51.19,88.65z"/>
<path id="path40" fill="#F7E4A8" d="M96.03,75.02c2.32-0.479,4.63,0.181,6.93,0.371c3.181,0.399,6.37-0.301,9.55-0.011
	c0.87,2.07,0.59,4.37,0.65,6.55c-1.141-1.01-2.16-2.13-3.12-3.31c-1.79-0.399-3.59-0.761-5.39-1.11c0.14,2.73,0.229,5.461,0.3,8.2
	c1.92-0.11,3.3-1.12,4.1-2.83c0.4-0.101,1.2-0.29,1.601-0.39c0.209,2.81,0.689,5.63,0.25,8.439c-2.83,0.16-3.131-3.9-6.08-3.92
	c-0.01,3.17-0.01,6.34-0.141,9.51c4.131,0.141,7.18-2.6,9.561-5.629c2.51,2.56,0.25,7.31-3.19,7.25
	c-5.13,0.439-10.29-0.041-15.44,0.029c1.21-1.4,2.63-2.63,3.65-4.18c0.23-5.29-0.25-10.59-0.09-15.891
	C97.98,77.21,95.58,77.01,96.03,75.02z"/>
<path id="path42" fill="#F7E4A8" d="M115.561,75.48c5.129-0.721,10.289,0.209,15.439-0.141c8.42-0.369,16.84,0.6,25.26,0.051
	c0.43,2.129,0.83,4.26,1.16,6.409c-2.109,0.431-2.59-1.819-3.63-3c-1.47-0.1-2.931-0.19-4.38-0.28c-0.24,5.41-0.18,10.83-0.04,16.24
	c0.989,1.23,2.71,1.58,3.989,2.45l-1.319,0.96c-4.28,0.301-8.601,0.109-12.88-0.16c1.189-1.31,2.74-2.15,4.27-2.97
	c0.15-5.681,0.291-11.37-0.01-17.05c-3.09-0.23-5.41,1.34-6.62,4.14c-0.829-1.2-1.62-2.43-2.569-3.53
	c-1.59-0.399-3.26-0.31-4.881-0.399c0.51,5.51-0.14,11.021,0.051,16.521c1.08,1.539,3.33,1.979,4.66,3.379
	c-5.261-0.33-10.82,1.061-15.881-0.51c1.76-0.949,3.57-1.83,5.381-2.699c-0.24-5.281-0.15-10.57-0.021-15.841
	c-0.05-2.239-3.13-1.12-4.39-0.729c-1.34,0.93-1.801,2.68-2.74,3.939C115.04,80.26,115.689,77.74,115.561,75.48z"/>
<path id="path44" fill="#F7E4A8" d="M157.029,75.58c6.131-0.83,12.291,0.29,18.441,0.1c-0.08,2.34-0.24,4.68-0.431,7.021
	c-1.19-1.46-1.569-4.2-3.87-4.3c-1.65-0.311-3.34-0.34-5.01-0.17c-0.141,2.5,0.029,5.01,0.189,7.51
	c1.271-0.141,2.551-0.29,3.83-0.43c0.211-0.791,0.641-2.351,0.85-3.131c2.811,1.37,2.201,5.15,2.061,7.75
	c-0.48,0.36-1.439,1.07-1.92,1.43c-0.561-1.189-1.109-2.379-1.66-3.58c-1.07-0.069-2.14-0.139-3.199-0.219
	c-0.09,3-0.15,5.989-0.16,8.989c3.629-0.3,6.83-1.979,9.14-4.79c0.51-0.01,1.521-0.029,2.03-0.05c-0.45,2.34-1.25,4.931-3.17,6.479
	c-5.65,0.66-11.471,0.391-17.08-0.359c0.359-1.641,2.029-2.33,3.16-3.35c0.6-5.371,0.16-10.78-0.01-16.16
	C158.95,77.641,157.891,76.73,157.029,75.58z"/>
<path id="path46" fill="#A20109" d="M32.57,77.43c1.48,0.141,3.08-0.119,4.44,0.561c1.35,0.8,1.18,2.609,1.66,3.91
	c-0.63,0.99-1.25,1.99-1.87,3c-1.43-0.08-2.87-0.16-4.31-0.24C32.47,82.25,32.49,79.84,32.57,77.43z"/>
<path id="path48" fill="#F7E4A8" d="M0,82.96c1.79,0.899,1.76,3.36,0,4.271V82.96z"/>
<path id="path50" fill="#A20109" d="M53.77,89.35c0.82-2,1.76-3.959,2.9-5.8c1.09,1.91,2.13,3.841,3.15,5.79
	C57.8,89.34,55.79,89.35,53.77,89.35z"/>
<path id="path52" fill="#A20109" d="M32.27,86.811c2.16-0.131,4.31,0.039,6.38,0.67c0.7,2.08,0.96,4.25,0.82,6.449
	c-2.17,1.37-4.64,1.67-7.1,0.98C32.34,92.21,32.31,89.51,32.27,86.811z"/>
</svg>
